<?xml version="1.0" encoding="UTF-8"?>
<!-- Generated by jsxcad -->
<!DOCTYPE svg PUBLIC "-//W3C//DTD SVG 1.1 Tiny//EN" "http://www.w3.org/Graphics/SVG/1.1/DTD/svg11-tiny.dtd">
<svg baseProfile="tiny" height="197.11907594393847mm" width="134.2555696786725mm" viewBox="-150.0000000000001 -98.18018094997264 134.2555696786725 197.11907594393847" version="1.1" stroke="black" stroke-width=".1" fill="none" xmlns="http://www.w3.org/2000/svg">
<path fill="#000000" stroke="#000000" d="M-62.493754907394944 -83.57263713939919 L-63.22400980135703 -84.46633163814744 L-65.69990950940105 -87.49636672154972 L-66.29445309539851 -88.22397613090149 L-66.82720624843861 -88.87596568413746 L-69.45801116309799 -92.09557557508194 L-69.83351736408922 -92.55512446526595 L-70.16666624290407 -92.96283596808873 L-72.94618271163515 -96.36444080199497 L-73.0969806436432 -96.54898907873024 L-73.22921046180936 -96.71081348010387 L-75.04981854647706 -98.93889499396577 L-75.04981854647706 -90.12620824402644 L-75.04981854647706 -85.51351428330588 L-73.22921046180936 -83.28543276944396 L-73.0969806436432 -83.12360836807035 L-72.94618271163515 -82.93906009133507 L-70.16666624290407 -79.53745525742882 L-69.83351736408923 -79.12974375460604 L-69.45801116309799 -78.67019486442203 L-66.82720624843861 -75.45058497347756 L-66.29445309539851 -74.7985954202416 L-65.69990950940105 -74.07098601088983 L-63.22400980135703 -71.04095092748753 L-62.493754907394944 -70.14725642873928 L-61.68579721461561 -69.15846833402273 L-59.371297071892016 -66.32595593046806 L-58.4464224194527 -65.19408349010394 L-57.43088012388317 -63.951250925336794 L-55.2842729570498 -61.32420791359609 L-54.168428603851396 -59.95862451503488 L-52.9514933119614 -58.469324840788325 L-50.97906707382794 -56.055446491212905 L-49.67665674775173 -54.46154146825299 L-48.264978158169036 -52.73391266365065 L-46.47267010298604 -50.540465057584505 L-44.98883382257435 -48.7245288251656 L-43.38957726710945 -46.767339907263924 L-41.78286673459105 -44.80102872487409 L-40.123460523742374 -42.77022795368317 L-38.34433871005473 -40.5929178245186 L-36.928165479970694 -38.8597884261878 L-35.09973825688866 -36.622137759084154 L-33.14902499179397 -34.2348320004173 L-31.92772562707492 -32.74019152269006 L-20.10818625534173 -18.275300699507582 L-19.323108624574196 -17.314513492864528 L-18.94640788775431 -16.853502715731935 L-18.37749940620394 -16.15726584767859 L-17.900008528594828 -15.572906914859319 L-17.16961625395483 -14.679044288027168 L-16.170054238864193 -13.45576857781934 L-16.110106851852485 -13.382404262934683 L-15.744430321327648 -12.934885038683701 L-15.744430321327648 -21.80771154811589 L-15.744430321327648 -26.3602657493436 L-16.110106851852485 -26.807784973594575 L-16.170054238864193 -26.881149288479236 L-17.16961625395483 -28.104424998687062 L-17.900008528594828 -28.998287625519215 L-18.37749940620394 -29.58264655833849 L-18.94640788775431 -30.27888342639183 L-19.323108624574196 -30.73989420352443 L-20.10818625534173 -31.70068141016748 L-31.927725627074924 -46.165572233349955 L-33.14902499179397 -47.66021271107719 L-35.09973825688866 -50.047518469744055 L-36.928165479970694 -52.28516913684769 L-38.34433871005473 -54.018298535178495 L-40.123460523742374 -56.19560866434307 L-41.782866734591046 -58.22640943553398 L-43.38957726710945 -60.192720617923825 L-44.98883382257435 -62.14990953582549 L-46.47267010298604 -63.96584576824441 L-48.264978158169036 -66.15929337431055 L-49.67665674775173 -67.88692217891288 L-50.97906707382794 -69.4808272018728 L-52.9514933119614 -71.89470555144823 L-54.168428603851396 -73.38400522569476 L-55.2842729570498 -74.74958862425599 L-57.43088012388317 -77.37663163599669 L-58.44642241945271 -78.61946420076383 L-59.371297071892016 -79.75133664112796 L-61.68579721461561 -82.58384904468262 z"/>
<path fill="#000000" stroke="#000000" d="M-43.383043621019176 46.00062991060277 L-41.782866734591074 44.042314680880885 L-40.123460523742395 42.011513909689974 L-38.69133049753169 40.25885639722537 L-36.9281654799707 38.10107438219457 L-35.09973825688865 35.86342371509093 L-33.846920368957925 34.33021049922001 L-31.927725627074928 31.98147747869684 L-20.108186255341764 17.516586655514395 L-19.32310862457422 16.555799448871333 L-18.94640788775434 16.09478867173874 L-18.37749940620396 15.398551803685391 L-17.90000852859485 14.814192870866119 L-17.169616253954846 13.920330244033961 L-16.17005423886421 12.697054533826131 L-16.1101068518525 12.623690218941473 L-15.744430321327648 12.176170994690477 L-15.744430321327648 21.048997504122504 L-15.744430321327648 24.712538522977685 L-15.744430321327647 25.60155170535037 L-16.1101068518525 26.049070929601367 L-16.17005423886421 26.122435244486027 L-17.169616253954846 27.345710954693857 L-17.900008528594846 28.239573581526013 L-18.37749940620396 28.823932514345287 L-18.94640788775434 29.520169382398638 L-19.32310862457422 29.98118015953123 L-20.108186255341764 30.941967366174293 L-31.927725627074928 45.40685818935673 L-33.846920368957925 47.75559120987991 L-35.09973825688865 49.288804425750826 L-36.9281654799707 51.52645509285447 L-38.69133049753169 53.68423710788527 L-40.123460523742395 55.43689462034987 L-41.78286673459108 57.467695391540786 L-43.38304362101917 59.426010621262655 L-44.98883382257437 61.39119549183229 L-46.47267010298606 63.207131724251205 L-47.90354369116185 64.95825159312162 L-49.676656747751764 67.1282081349197 L-50.97906707382798 68.72211315787962 L-52.234990359402865 70.25912679578667 L-54.16842860385144 72.62529118170158 L-55.28427295704985 73.99087458026283 L-56.36028938459245 75.30771609657245 L-58.44642241945275 77.86075015677066 L-59.37129707189206 78.99262259713478 L-60.26316009614801 80.08409501998979 L-62.49375490739499 82.81392309540601 L-63.22400980135707 83.70761759415427 L-63.92819964642309 84.56941338054793 L-66.29445309539858 87.46526208690835 L-66.82720624843869 88.11725164014432 L-67.34094379871004 88.74596967582481 L-69.8335173640893 91.7964104212728 L-70.16666624290414 92.20412192409559 L-70.48792401097427 92.59728094621002 L-73.0969806436433 95.79027503473714 L-73.22921046180944 95.95209943611076 L-73.35672059003649 96.1081478256161 L-75.04981854647706 98.18018094997254 L-75.04981854647706 93.94247423967538 L-75.04981854647706 89.36749420003372 L-75.04981854647706 84.75480023931264 L-73.35672059003649 82.6827671149562 L-73.22921046180946 82.52671872545086 L-73.09698064364332 82.36489432407726 L-70.48792401097427 79.17190023555013 L-70.16666624290414 78.7787412134357 L-69.8335173640893 78.37102971061292 L-67.34094379871003 75.3205889651649 L-66.82720624843869 74.69187092948442 L-66.29445309539858 74.03988137624845 L-63.92819964642309 71.14403266988803 L-63.22400980135707 70.28223688349436 L-62.49375490739499 69.38854238474612 L-60.26316009614801 66.65871430932988 L-59.37129707189206 65.56724188647489 L-58.446422419452745 64.43536944611076 L-56.36028938459245 61.88233538591256 L-55.28427295704985 60.565493869602925 L-54.168428603851446 59.199910471041704 L-52.23499035940286 56.833746085126776 L-50.97906707382798 55.296732447219725 L-49.676656747751764 53.70282742425982 L-47.90354369116184 51.53287088246172 L-46.47267010298606 49.781751013591304 L-44.98883382257437 47.96581478117239 z"/>
<path fill="#000000" stroke="#000000" d="M-142.658477444273 39.13305593424792 L-145.28747416929463 32.729808158801035 L-145.28747416929463 19.304427448141137 L-142.658477444273 25.70767522358803 z"/>
<path fill="#000000" stroke="#000000" d="M-15.744430321327647 12.176170994690478 L-17.7799613943032 11.307595499593432 L-17.7799613943032 24.73297621025333 L-15.744430321327647 25.601551705350374 L-15.744430321327647 24.712538522977685 L-15.744430321327647 21.048997504122504 z"/>
<path fill="#000000" stroke="#000000" d="M-20.628113119276463 23.17887625692209 L-17.779961394303204 24.732976210253327 L-17.779961394303204 11.30759549959343 L-20.62811311927646 9.753495546262194 z"/>
<path fill="#000000" stroke="#000000" d="M-23.20734584310673 21.405168889644248 L-20.628113119276463 23.178876256922088 L-20.628113119276463 9.753495546262194 L-23.20734584310673 7.979788178984351 z"/>
<path fill="#000000" stroke="#000000" d="M-25.48403532281083 19.434977096488062 L-23.207345843106733 21.405168889644244 L-23.20734584310673 7.97978817898435 L-25.484035322810826 6.009596385828166 z"/>
<path fill="#000000" stroke="#000000" d="M-148.81720519717166 19.636469951757814 L-149.70400926424068 12.99805294428748 L-149.70400926424068 -0.4273277663724173 L-148.81720519717163 6.211089241097917 z"/>
<path fill="#000000" stroke="#000000" d="M-30.22402866885666 12.613109121893764 L-29.015395073117766 15.010104723436385 L-29.015395073117766 1.5847240127764894 L-30.22402866885666 -0.8122715887661315 z"/>
<path fill="#000000" stroke="#000000" d="M-31.44862677367327 7.605834233736908 L-31.038645829202327 10.134247039267938 L-31.038645829202324 -3.2911336713919566 L-31.44862677367327 -5.81954647692299 z"/>
<path fill="#000000" stroke="#000000" d="M-31.448626773673272 5.0608324329297965 L-31.44862677367327 7.605834233736907 L-31.44862677367327 -5.81954647692299 L-31.448626773673272 -8.3645482777301 z"/>
<path fill="#000000" stroke="#000000" d="M-30.224028668856675 0.05355754477293242 L-31.038645829202334 2.532419627398758 L-31.038645829202334 -10.892961083261138 L-30.224028668856675 -13.371823165886966 z"/>
<path fill="#000000" stroke="#000000" d="M-29.015395073117787 -2.3434380567696853 L-30.224028668856675 0.05355754477293276 L-30.224028668856675 -13.371823165886964 L-29.015395073117787 -15.768818767429583 z"/>
<path fill="#000000" stroke="#000000" d="M-149.70400926424074 -0.3313862776205854 L-148.8172051971717 -6.969803285090944 L-148.8172051971717 -20.39518399575084 L-149.70400926424074 -13.756766988280482 z"/>
<path fill="#000000" stroke="#000000" d="M-25.48403532281085 -6.768310429821369 L-27.428501429272988 -4.627318673830668 L-27.428501429272988 -18.052699384490566 L-25.48403532281085 -20.193691140481267 z"/>
<path fill="#000000" stroke="#000000" d="M-23.207345843106765 -8.73850222297755 L-25.48403532281085 -6.76831042982137 L-25.48403532281085 -20.193691140481267 L-23.207345843106765 -22.16388293363745 z"/>
<path fill="#000000" stroke="#000000" d="M-148.8172051971717 -6.969803285090944 L-147.34308760930332 -13.55571888995339 L-147.34308760930332 -26.98109960061329 L-148.8172051971717 -20.39518399575084 z"/>
<path fill="#000000" stroke="#000000" d="M-20.62811311927649 -10.51220959025541 L-23.207345843106765 -8.73850222297755 L-23.20734584310677 -22.16388293363745 L-20.62811311927649 -23.9375903009153 z"/>
<path fill="#000000" stroke="#000000" d="M-17.77996139430324 -12.066309543586641 L-20.628113119276495 -10.512209590255408 L-20.628113119276495 -23.9375903009153 L-17.779961394303246 -25.49169025424653 z"/>
<path fill="#000000" stroke="#000000" d="M-17.779961394303236 -12.066309543586648 L-17.779961394303236 -25.491690254246542 L-15.744430321327648 -26.360265749343608 L-15.744430321327648 -21.8077115481159 L-15.744430321327648 -12.934885038683712 z"/>
<path fill="#000000" stroke="#000000" d="M-145.28747416929468 -20.063141492134168 L-142.65847744427307 -26.46638926758107 L-142.65847744427307 -39.891769978240966 L-145.28747416929468 -33.48852220279406 z"/>
<path fill="#000000" stroke="#000000" d="M-75.04981854647706 -98.93889499396577 L-80.37401924684951 -96.71081348010388 L-80.37401924684951 -83.285432769444 L-75.04981854647706 -85.51351428330591 L-75.04981854647706 -90.12620824402647 z"/>
<path fill="#000000" stroke="#000000" d="M-95.61359846230351 -75.45058497347755 L-88.16778784387103 -79.53745525742883 L-88.16778784387103 -92.96283596808873 L-95.61359846230351 -88.87596568413746 z"/>
<path fill="#000000" stroke="#000000" d="M-102.68206588930335 -71.04095092748751 L-95.6135984623035 -75.45058497347756 L-95.6135984623035 -88.87596568413746 L-102.68206588930335 -84.46633163814741 z"/>
<path fill="#000000" stroke="#000000" d="M-109.34529411321176 -66.32595593046804 L-102.68206588930335 -71.04095092748751 L-102.68206588930335 -84.46633163814741 L-109.34529411321178 -79.75133664112793 z"/>
<path fill="#000000" stroke="#000000" d="M-115.57698641636843 -61.32420791359608 L-109.34529411321176 -66.32595593046806 L-109.34529411321176 -79.75133664112795 L-115.57698641636843 -74.74958862425596 z"/>
<path fill="#000000" stroke="#000000" d="M-121.35254915624215 -56.055446491212884 L-115.57698641636843 -61.32420791359607 L-115.57698641636843 -74.74958862425596 L-121.35254915624215 -69.48082720187278 z"/>
<path fill="#000000" stroke="#000000" d="M-131.4460020065796 -44.801028724874044 L-126.64918882530232 -50.54046505758447 L-126.64918882530232 -63.96584576824437 L-131.4460020065796 -58.226409435533945 z"/>
<path fill="#000000" stroke="#000000" d="M-135.72405786990296 -38.859788426187755 L-131.4460020065796 -44.80102872487405 L-131.4460020065796 -58.226409435533945 L-135.72405786990296 -52.28516913684765 z"/>
<path fill="#000000" stroke="#000000" d="M-142.65847744427307 -26.466389267581068 L-139.46647288323774 -32.74019152269001 L-139.46647288323774 -46.16557223334991 L-142.65847744427307 -39.89176997824096 z"/>
<path fill="#000000" stroke="#000000" d="M-27.428501429272988 -4.627318673830669 L-29.015395073117787 -2.3434380567696858 L-29.015395073117787 -15.768818767429584 L-27.428501429272988 -18.052699384490563 z"/>
<path fill="#000000" stroke="#000000" d="M-149.99999999999997 6.333333333333448 L-149.70400926424074 -0.33138627762058537 L-149.70400926424074 -13.756766988280482 L-150 -7.092047377326449 z"/>
<path fill="#000000" stroke="#000000" d="M-31.038645829202324 10.13424703926794 L-30.22402866885666 12.613109121893766 L-30.22402866885666 -0.8122715887661314 L-31.038645829202324 -3.2911336713919566 z"/>
<path fill="#000000" stroke="#000000" d="M-27.428501429272973 17.29398534049736 L-25.48403532281083 19.434977096488062 L-25.484035322810826 6.009596385828166 L-27.42850142927297 3.8686046298374634 z"/>
<path fill="#000000" stroke="#000000" d="M-29.015395073117766 15.010104723436386 L-27.42850142927297 17.293985340497358 L-27.42850142927297 3.8686046298374634 L-29.015395073117766 1.5847240127764894 z"/>
<path fill="#000000" stroke="#000000" d="M-147.34308760930324 26.22238555662026 L-148.81720519717166 19.636469951757814 L-148.81720519717166 6.211089241097917 L-147.34308760930327 12.797004845960364 z"/>
<path fill="#000000" stroke="#000000" d="M-139.46647288323763 45.40685818935689 L-142.658477444273 39.13305593424793 L-142.658477444273 25.707675223588026 L-139.46647288323763 31.981477478697 z"/>
<path fill="#000000" stroke="#000000" d="M-135.72405786990285 51.526455092854626 L-139.46647288323763 45.406858189356896 L-139.46647288323763 31.981477478697 L-135.72405786990285 38.10107438219473 z"/>
<path fill="#000000" stroke="#000000" d="M-131.44600200657945 57.46769539154092 L-135.72405786990285 51.52645509285463 L-135.72405786990285 38.10107438219473 L-131.44600200657945 44.04231468088102 z"/>
<path fill="#000000" stroke="#000000" d="M-121.35254915624196 68.72211315787972 L-126.64918882530213 63.20713172425134 L-126.64918882530213 49.78175101359144 L-121.35254915624196 55.29673244721983 z"/>
<path fill="#000000" stroke="#000000" d="M-102.68206588930315 83.70761759415431 L-109.34529411321158 78.99262259713485 L-109.34529411321158 65.56724188647496 L-102.68206588930316 70.28223688349442 z"/>
<path fill="#000000" stroke="#000000" d="M-95.61359846230327 88.11725164014436 L-102.68206588930315 83.70761759415431 L-102.68206588930315 70.28223688349442 L-95.61359846230327 74.69187092948447 z"/>
<path fill="#000000" stroke="#000000" d="M-80.37401924684926 95.95209943611079 L-88.16778784387076 92.20412192409563 L-88.16778784387076 78.77874121343572 L-80.37401924684926 82.52671872545088 z"/>
<path fill="#000000" stroke="#000000" d="M-80.37401924684926 95.95209943611079 L-80.37401924684926 82.52671872545089 L-75.04981854647706 84.75480023931266 L-75.04981854647706 89.36749420003373 L-75.04981854647706 93.94247423967538 L-75.04981854647706 98.18018094997255 z"/>
<path fill="#000000" stroke="#000000" d="M-88.16778784387078 92.2041219240956 L-95.61359846230327 88.11725164014436 L-95.61359846230327 74.69187092948447 L-88.16778784387077 78.77874121343572 z"/>
<path fill="#000000" stroke="#000000" d="M-109.34529411321158 78.99262259713485 L-115.57698641636821 73.99087458026291 L-115.57698641636821 60.565493869603024 L-109.34529411321158 65.56724188647495 z"/>
<path fill="#000000" stroke="#000000" d="M-115.57698641636821 73.99087458026291 L-121.35254915624196 68.72211315787972 L-121.35254915624196 55.29673244721983 L-115.57698641636821 60.565493869603024 z"/>
<path fill="#000000" stroke="#000000" d="M-126.64918882530213 63.20713172425134 L-131.44600200657945 57.467695391540914 L-131.44600200657945 44.04231468088102 L-126.64918882530213 49.78175101359144 z"/>
<path fill="#000000" stroke="#000000" d="M-145.28747416929463 32.729808158801035 L-147.34308760930327 26.22238555662026 L-147.34308760930327 12.797004845960364 L-145.28747416929463 19.304427448141137 z"/>
<path fill="#000000" stroke="#000000" d="M-149.70400926424068 12.998052944287478 L-149.99999999999997 6.333333333333447 L-149.99999999999997 -7.092047377326449 L-149.70400926424068 -0.4273277663724173 z"/>
<path fill="#000000" stroke="#000000" d="M-31.038645829202334 2.532419627398758 L-31.448626773673276 5.0608324329297965 L-31.448626773673276 -8.3645482777301 L-31.038645829202334 -10.892961083261138 z"/>
<path fill="#000000" stroke="#000000" d="M-147.34308760930332 -13.555718889953392 L-145.28747416929468 -20.063141492134168 L-145.28747416929468 -33.488522202794066 L-147.34308760930332 -26.981099600613287 z"/>
<path fill="#000000" stroke="#000000" d="M-139.46647288323774 -32.74019152269001 L-135.72405786990296 -38.859788426187755 L-135.72405786990296 -52.28516913684766 L-139.46647288323774 -46.165572233349906 z"/>
<path fill="#000000" stroke="#000000" d="M-126.64918882530232 -50.54046505758448 L-121.35254915624215 -56.05544649121289 L-121.35254915624215 -69.48082720187278 L-126.64918882530232 -63.96584576824437 z"/>
<path fill="#000000" stroke="#000000" d="M-88.16778784387101 -79.53745525742885 L-80.37401924684953 -83.285432769444 L-80.37401924684953 -96.71081348010388 L-88.16778784387101 -92.96283596808874 z"/>
<path fill="#000000" stroke="#000000" d="M-145.28747416929468 -33.488522202794066 L-142.65847744427307 -39.891769978240966 L-139.46647288323774 -46.16557223334991 L-135.72405786990296 -52.28516913684766 L-131.4460020065796 -58.22640943553394 L-126.64918882530232 -63.96584576824437 L-121.35254915624215 -69.48082720187278 L-115.57698641636843 -74.74958862425598 L-109.34529411321176 -79.75133664112795 L-102.68206588930335 -84.46633163814741 L-95.6135984623035 -88.87596568413746 L-88.16778784387103 -92.96283596808871 L-80.37401924684954 -96.71081348010387 L-75.04981854647706 -98.93889499396577 L-73.22921046180936 -96.71081348010387 L-73.0969806436432 -96.54898907873024 L-72.94618271163516 -96.36444080199496 L-70.16666624290407 -92.96283596808873 L-69.83351736408923 -92.55512446526595 L-69.45801116309799 -92.09557557508192 L-66.82720624843863 -88.87596568413746 L-66.29445309539852 -88.22397613090149 L-65.69990950940105 -87.49636672154972 L-63.22400980135703 -84.46633163814744 L-62.493754907394944 -83.57263713939918 L-61.68579721461562 -82.58384904468264 L-59.37129707189202 -79.75133664112796 L-58.44642241945271 -78.61946420076383 L-57.43088012388318 -77.37663163599669 L-55.28427295704981 -74.74958862425599 L-54.1684286038514 -73.38400522569476 L-52.95149331196141 -71.89470555144823 L-50.97906707382795 -69.48082720187281 L-49.676656747751736 -67.8869221789129 L-48.26497815816904 -66.15929337431054 L-46.47267010298604 -63.96584576824441 L-44.98883382257436 -62.149909535825486 L-43.38957726710945 -60.19272061792382 L-41.78286673459105 -58.226409435533974 L-40.123460523742374 -56.19560866434307 L-38.344338710054735 -54.018298535178495 L-36.9281654799707 -52.28516913684769 L-35.09973825688866 -50.047518469744055 L-33.14902499179398 -47.6602127110772 L-31.927725627074924 -46.165572233349955 L-20.10818625534173 -31.70068141016748 L-19.3231086245742 -30.739894203524425 L-18.946407887754315 -30.278883426391833 L-18.37749940620394 -29.582646558338485 L-17.900008528594828 -28.998287625519218 L-17.16961625395483 -28.104424998687062 L-16.170054238864196 -26.881149288479236 L-16.11010685185249 -26.807784973594575 L-15.74443032132765 -26.3602657493436 L-17.77996139430324 -25.49169025424654 L-20.628113119276488 -23.937590300915303 L-23.207345843106765 -22.16388293363745 L-25.48403532281085 -20.193691140481267 L-27.428501429272988 -18.052699384490566 L-29.015395073117787 -15.768818767429583 L-30.224028668856675 -13.371823165886962 L-31.038645829202334 -10.892961083261138 L-31.448626773673276 -8.3645482777301 L-31.448626773673272 -5.81954647692299 L-31.038645829202327 -3.2911336713919566 L-30.224028668856665 -0.8122715887661314 L-29.01539507311777 1.5847240127764894 L-27.428501429272973 3.8686046298374634 L-25.48403532281083 6.009596385828166 L-23.207345843106733 7.97978817898435 L-20.628113119276463 9.753495546262194 L-17.779961394303204 11.30759549959343 L-15.744430321327648 12.176170994690477 L-16.1101068518525 12.623690218941473 L-16.17005423886421 12.697054533826131 L-17.169616253954846 13.92033024403396 L-17.90000852859485 14.814192870866117 L-18.37749940620396 15.398551803685391 L-18.94640788775434 16.09478867173874 L-19.323108624574225 16.555799448871333 L-20.108186255341764 17.516586655514395 L-31.927725627074928 31.98147747869684 L-33.84692036895793 34.33021049922001 L-35.09973825688865 35.863423715090924 L-36.9281654799707 38.101074382194575 L-38.691330497531695 40.25885639722537 L-40.123460523742395 42.011513909689974 L-41.78286673459108 44.042314680880885 L-43.383043621019176 46.00062991060277 L-44.98883382257437 47.96581478117239 L-46.472670102986065 49.78175101359131 L-47.90354369116185 51.53287088246173 L-49.67665674775177 53.70282742425981 L-50.979067073827984 55.296732447219725 L-52.234990359402865 56.833746085126776 L-54.168428603851446 59.1999104710417 L-55.28427295704985 60.565493869602925 L-56.36028938459245 61.882335385912555 L-58.44642241945275 64.43536944611076 L-59.371297071892066 65.56724188647487 L-60.26316009614801 66.65871430932988 L-62.493754907394994 69.38854238474612 L-63.22400980135707 70.28223688349436 L-63.928199646423096 71.14403266988803 L-66.29445309539858 74.03988137624845 L-66.82720624843869 74.69187092948442 L-67.34094379871004 75.32058896516492 L-69.8335173640893 78.3710297106129 L-70.16666624290416 78.7787412134357 L-70.48792401097427 79.17190023555013 L-73.09698064364332 82.36489432407726 L-73.22921046180946 82.52671872545086 L-73.35672059003649 82.6827671149562 L-75.04981854647706 84.75480023931264 L-80.37401924684927 82.52671872545088 L-88.16778784387077 78.77874121343571 L-95.61359846230327 74.69187092948447 L-102.68206588930315 70.28223688349442 L-109.34529411321158 65.56724188647496 L-115.57698641636821 60.56549386960302 L-121.35254915624196 55.29673244721983 L-126.64918882530213 49.781751013591446 L-131.44600200657945 44.04231468088102 L-135.72405786990285 38.10107438219473 L-139.46647288323763 31.981477478697 L-142.658477444273 25.70767522358803 L-145.28747416929463 19.304427448141137 L-147.34308760930327 12.797004845960364 L-148.81720519717166 6.211089241097917 L-149.7040092642407 -0.42732776637241726 L-150 -7.092047377326448 L-149.70400926424074 -13.75676698828048 L-148.8172051971717 -20.39518399575084 L-147.34308760930332 -26.981099600613284 z"/>
<path fill="#000000" stroke="#000000" d="M-65.69990950940105 -74.07098601088983 L-66.29445309539852 -74.79859542024158 L-66.82720624843863 -75.45058497347756 L-69.45801116309799 -78.67019486442203 L-69.83351736408923 -79.12974375460605 L-70.16666624290407 -79.53745525742883 L-72.94618271163516 -82.93906009133507 L-73.0969806436432 -83.12360836807035 L-73.22921046180936 -83.28543276944397 L-75.04981854647706 -85.51351428330588 L-80.37401924684954 -83.28543276944396 L-88.16778784387103 -79.53745525742883 L-95.6135984623035 -75.45058497347756 L-102.68206588930335 -71.04095092748751 L-109.34529411321176 -66.32595593046804 L-115.57698641636843 -61.324207913596084 L-121.35254915624215 -56.055446491212884 L-126.64918882530232 -50.54046505758448 L-131.4460020065796 -44.801028724874044 L-135.72405786990296 -38.85978842618776 L-139.46647288323774 -32.74019152269001 L-142.65847744427307 -26.466389267581068 L-145.28747416929468 -20.063141492134168 L-147.34308760930332 -13.555718889953392 L-148.8172051971717 -6.969803285090944 L-149.70400926424074 -0.33138627762058537 L-150 6.333333333333447 L-149.7040092642407 12.99805294428748 L-148.81720519717166 19.636469951757814 L-147.34308760930327 26.222385556620257 L-145.28747416929463 32.729808158801035 L-142.658477444273 39.13305593424793 L-139.46647288323763 45.40685818935689 L-135.72405786990285 51.52645509285463 L-131.44600200657945 57.46769539154092 L-126.64918882530213 63.20713172425133 L-121.35254915624196 68.72211315787972 L-115.57698641636821 73.99087458026291 L-109.34529411321158 78.99262259713485 L-102.68206588930315 83.70761759415431 L-95.61359846230327 88.11725164014436 L-88.16778784387077 92.20412192409562 L-80.37401924684927 95.95209943611077 L-75.04981854647706 98.18018094997255 L-73.35672059003649 96.10814782561611 L-73.22921046180946 95.95209943611076 L-73.09698064364332 95.79027503473715 L-70.48792401097427 92.59728094621002 L-70.16666624290416 92.20412192409559 L-69.8335173640893 91.79641042127281 L-67.34094379871004 88.74596967582481 L-66.82720624843869 88.11725164014432 L-66.29445309539858 87.46526208690835 L-63.928199646423096 84.56941338054793 L-63.22400980135707 83.70761759415426 L-62.493754907394994 82.81392309540601 L-60.26316009614801 80.08409501998979 L-59.371297071892066 78.99262259713478 L-58.44642241945275 77.86075015677066 L-56.36028938459245 75.30771609657245 L-55.28427295704985 73.99087458026281 L-54.168428603851446 72.6252911817016 L-52.234990359402865 70.25912679578667 L-50.979067073827984 68.72211315787963 L-49.67665674775177 67.1282081349197 L-47.90354369116185 64.95825159312162 L-46.472670102986065 63.207131724251205 L-44.98883382257437 61.39119549183229 L-43.383043621019176 59.42601062126266 L-41.78286673459108 57.46769539154078 L-40.123460523742395 55.43689462034987 L-38.691330497531695 53.684237107885274 L-36.9281654799707 51.52645509285447 L-35.09973825688865 49.288804425750826 L-33.84692036895793 47.7555912098799 L-31.927725627074928 45.40685818935673 L-20.108186255341764 30.941967366174293 L-19.323108624574225 29.981180159531228 L-18.94640788775434 29.520169382398635 L-18.37749940620396 28.823932514345287 L-17.90000852859485 28.239573581526013 L-17.169616253954846 27.345710954693853 L-16.17005423886421 26.122435244486024 L-16.1101068518525 26.049070929601367 L-15.744430321327648 25.601551705350374 L-17.779961394303204 24.732976210253323 L-20.628113119276463 23.17887625692209 L-23.207345843106733 21.405168889644248 L-25.48403532281083 19.434977096488062 L-27.428501429272973 17.293985340497358 L-29.01539507311777 15.010104723436386 L-30.224028668856665 12.613109121893764 L-31.038645829202327 10.13424703926794 L-31.448626773673272 7.605834233736907 L-31.448626773673276 5.0608324329297965 L-31.038645829202334 2.5324196273987574 L-30.224028668856675 0.05355754477293254 L-29.015395073117787 -2.3434380567696858 L-27.428501429272988 -4.627318673830668 L-25.48403532281085 -6.76831042982137 L-23.207345843106765 -8.738502222977553 L-20.628113119276488 -10.512209590255406 L-17.77996139430324 -12.066309543586641 L-15.74443032132765 -12.934885038683703 L-16.11010685185249 -13.382404262934683 L-16.170054238864196 -13.455768577819338 L-17.16961625395483 -14.679044288027166 L-17.900008528594828 -15.57290691485932 L-18.37749940620394 -16.15726584767859 L-18.946407887754315 -16.853502715731935 L-19.3231086245742 -17.31451349286453 L-20.10818625534173 -18.275300699507582 L-31.927725627074924 -32.740191522690054 L-33.14902499179398 -34.2348320004173 L-35.09973825688866 -36.622137759084154 L-36.9281654799707 -38.8597884261878 L-38.344338710054735 -40.59291782451861 L-40.123460523742374 -42.77022795368317 L-41.78286673459105 -44.80102872487409 L-43.38957726710945 -46.767339907263924 L-44.98883382257436 -48.72452882516559 L-46.47267010298604 -50.540465057584505 L-48.26497815816904 -52.73391266365064 L-49.676656747751736 -54.461541468252996 L-50.97906707382795 -56.055446491212905 L-52.95149331196141 -58.469324840788325 L-54.1684286038514 -59.95862451503487 L-55.28427295704981 -61.32420791359609 L-57.43088012388318 -63.951250925336794 L-58.44642241945271 -65.19408349010394 L-59.37129707189202 -66.32595593046807 L-61.68579721461562 -69.15846833402274 L-62.493754907394944 -70.14725642873928 L-63.22400980135703 -71.04095092748753 z"/>
</svg>